<svg width="30" height="31" viewBox="0 0 30 31" fill="none" xmlns="http://www.w3.org/2000/svg">
<path d="M12 16.96C12.2652 16.96 12.5196 16.8546 12.7071 16.6671C12.8946 16.4795 13 16.2252 13 15.96C13 15.6947 12.8946 15.4404 12.7071 15.2529C12.5196 15.0653 12.2652 14.96 12 14.96C11.7348 14.96 11.4804 15.0653 11.2929 15.2529C11.1054 15.4404 11 15.6947 11 15.96C11 16.2252 11.1054 16.4795 11.2929 16.6671C11.4804 16.8546 11.7348 16.96 12 16.96ZM19 15.96C19 16.2252 18.8946 16.4795 18.7071 16.6671C18.5196 16.8546 18.2652 16.96 18 16.96C17.7348 16.96 17.4804 16.8546 17.2929 16.6671C17.1054 16.4795 17 16.2252 17 15.96C17 15.6947 17.1054 15.4404 17.2929 15.2529C17.4804 15.0653 17.7348 14.96 18 14.96C18.2652 14.96 18.5196 15.0653 18.7071 15.2529C18.8946 15.4404 19 15.6947 19 15.96ZM15 19.96C15.5304 19.96 16.0391 19.7492 16.4142 19.3742C16.7893 18.9991 17 18.4904 17 17.96H13C13 18.4904 13.2107 18.9991 13.5858 19.3742C13.9609 19.7492 14.4696 19.96 15 19.96Z" fill="#EFEFF1"/>
<path fill-rule="evenodd" clip-rule="evenodd" d="M23 15.96C23 18.0817 22.1571 20.1165 20.6569 21.6168C19.1566 23.1171 17.1217 23.96 15 23.96C12.8783 23.96 10.8434 23.1171 9.34315 21.6168C7.84285 20.1165 7 18.0817 7 15.96C7 13.8382 7.84285 11.8034 9.34315 10.3031C10.8434 8.80282 12.8783 7.95996 15 7.95996C17.1217 7.95996 19.1566 8.80282 20.6569 10.3031C22.1571 11.8034 23 13.8382 23 15.96ZM21 15.96C21 17.5513 20.3679 19.0774 19.2426 20.2026C18.1174 21.3278 16.5913 21.96 15 21.96C13.4087 21.96 11.8826 21.3278 10.7574 20.2026C9.63214 19.0774 9 17.5513 9 15.96C9 14.3687 9.63214 12.8425 10.7574 11.7173C11.8826 10.5921 13.4087 9.95996 15 9.95996C16.5913 9.95996 18.1174 10.5921 19.2426 11.7173C20.3679 12.8425 21 14.3687 21 15.96Z" fill="#EFEFF1"/>
</svg>
