<svg width="18" height="19" viewBox="0 0 18 19" fill="none" xmlns="http://www.w3.org/2000/svg">
<path fill-rule="evenodd" clip-rule="evenodd" d="M9.00005 16.41C10.9096 16.41 12.741 15.6514 14.0912 14.3012C15.4415 12.9509 16.2 11.1196 16.2 9.21001C16.2 7.30045 15.4415 5.4691 14.0912 4.11884C12.741 2.76858 10.9096 2.01001 9.00005 2.01001C7.09049 2.01001 5.25914 2.76858 3.90888 4.11884C2.55862 5.4691 1.80005 7.30045 1.80005 9.21001C1.80005 11.1196 2.55862 12.9509 3.90888 14.3012C5.25914 15.6514 7.09049 16.41 9.00005 16.41ZM8.10005 7.41001V5.61001H9.90005V7.41001H8.10005ZM8.10005 12.81V8.31001H9.90005V12.81H8.10005Z" fill="#ADADB8"/>
</svg>
