<svg width="30" height="30" viewBox="0 0 30 30" fill="none" xmlns="http://www.w3.org/2000/svg">
<path d="M15 23C14.4696 23 13.9609 22.7893 13.5858 22.4142C13.2107 22.0391 13 21.5304 13 21C13 20.4696 13.2107 19.9609 13.5858 19.5858C13.9609 19.2107 14.4696 19 15 19C15.5304 19 16.0391 19.2107 16.4142 19.5858C16.7893 19.9609 17 20.4696 17 21C17 21.5304 16.7893 22.0391 16.4142 22.4142C16.0391 22.7893 15.5304 23 15 23ZM15 17C14.4696 17 13.9609 16.7893 13.5858 16.4142C13.2107 16.0391 13 15.5304 13 15C13 14.4696 13.2107 13.9609 13.5858 13.5858C13.9609 13.2107 14.4696 13 15 13C15.5304 13 16.0391 13.2107 16.4142 13.5858C16.7893 13.9609 17 14.4696 17 15C17 15.5304 16.7893 16.0391 16.4142 16.4142C16.0391 16.7893 15.5304 17 15 17ZM13 9C13 9.53043 13.2107 10.0391 13.5858 10.4142C13.9609 10.7893 14.4696 11 15 11C15.5304 11 16.0391 10.7893 16.4142 10.4142C16.7893 10.0391 17 9.53043 17 9C17 8.46957 16.7893 7.96086 16.4142 7.58579C16.0391 7.21071 15.5304 7 15 7C14.4696 7 13.9609 7.21071 13.5858 7.58579C13.2107 7.96086 13 8.46957 13 9Z" fill="white"/>
</svg>
