<svg width="14" height="16" viewBox="0 0 14 16" fill="none" xmlns="http://www.w3.org/2000/svg">
<path fill-rule="evenodd" clip-rule="evenodd" d="M2 5.00006C2.00022 4.0624 2.2641 3.14369 2.7615 2.34884C3.25891 1.55399 3.9698 0.915016 4.81301 0.504885C5.65621 0.0947534 6.59776 -0.0700098 7.53013 0.0294067C8.46251 0.128823 9.34814 0.488413 10.0859 1.06712C10.8237 1.64583 11.3839 2.42033 11.7025 3.30219C12.0211 4.18406 12.0853 5.13775 11.8878 6.05437C11.6903 6.97099 11.2391 7.81361 10.5856 8.48602C9.93204 9.15843 9.10262 9.63352 8.192 9.85706C8.35425 10.1992 8.6103 10.4882 8.93036 10.6906C9.25042 10.8929 9.62134 11.0002 10 11.0001H11C11.7956 11.0001 12.5587 11.3161 13.1213 11.8787C13.6839 12.4413 14 13.2044 14 14.0001V16.0001H12V14.0001C12 13.7348 11.8946 13.4805 11.7071 13.293C11.5196 13.1054 11.2652 13.0001 11 13.0001H10C9.43241 13.0007 8.87122 12.8803 8.35388 12.6468C7.83654 12.4133 7.37498 12.0721 7 11.6461C6.62502 12.0721 6.16346 12.4133 5.64612 12.6468C5.12878 12.8803 4.56759 13.0007 4 13.0001H3C2.73478 13.0001 2.48043 13.1054 2.29289 13.293C2.10536 13.4805 2 13.7348 2 14.0001V16.0001H0V14.0001C0 13.2044 0.316071 12.4413 0.87868 11.8787C1.44129 11.3161 2.20435 11.0001 3 11.0001H4C4.37866 11.0002 4.74958 10.8929 5.06964 10.6906C5.3897 10.4882 5.64575 10.1992 5.808 9.85706C4.72151 9.58999 3.75592 8.96636 3.0656 8.08588C2.37528 7.2054 2.00009 6.11889 2 5.00006ZM7 8.00006C6.60603 8.00006 6.21593 7.92246 5.85195 7.7717C5.48797 7.62093 5.15726 7.39996 4.87868 7.12138C4.6001 6.8428 4.37913 6.51209 4.22836 6.14811C4.0776 5.78413 4 5.39402 4 5.00006C4 4.60609 4.0776 4.21599 4.22836 3.85201C4.37913 3.48803 4.6001 3.15731 4.87868 2.87874C5.15726 2.60016 5.48797 2.37918 5.85195 2.22842C6.21593 2.07766 6.60603 2.00006 7 2.00006C7.79565 2.00006 8.55871 2.31613 9.12132 2.87874C9.68393 3.44135 10 4.20441 10 5.00006C10 5.79571 9.68393 6.55877 9.12132 7.12138C8.55871 7.68399 7.79565 8.00006 7 8.00006Z" fill="white"/>
</svg>
