<svg width="25" height="24" viewBox="0 0 25 24" fill="none" xmlns="http://www.w3.org/2000/svg">
<path fill-rule="evenodd" clip-rule="evenodd" d="M16.3303 17.5271C14.6295 18.7989 12.5101 19.3793 10.3987 19.1514C8.28725 18.9236 6.34047 17.9044 4.95016 16.2991C3.55986 14.6937 2.82922 12.6213 2.9053 10.499C2.98138 8.37665 3.85853 6.3619 5.36021 4.86021C6.8619 3.35853 8.87665 2.48138 10.999 2.4053C13.1213 2.32922 15.1937 3.05986 16.7991 4.45016C18.4044 5.84047 19.4236 7.78725 19.6514 9.89869C19.8793 12.0101 19.2989 14.1295 18.0271 15.8303L21.7483 19.5503L20.0515 21.2483L16.3315 17.5283L16.3303 17.5271ZM17.2999 10.7999C17.2999 12.3912 16.6678 13.9173 15.5425 15.0425C14.4173 16.1678 12.8912 16.7999 11.2999 16.7999C9.7086 16.7999 8.18248 16.1678 7.05726 15.0425C5.93204 13.9173 5.2999 12.3912 5.2999 10.7999C5.2999 9.2086 5.93204 7.68248 7.05726 6.55726C8.18248 5.43204 9.7086 4.7999 11.2999 4.7999C12.8912 4.7999 14.4173 5.43204 15.5425 6.55726C16.6678 7.68248 17.2999 9.2086 17.2999 10.7999Z" fill="#EFEFF1"/>
</svg>
